<?xml version="1.0" encoding="utf-8"?>
<!-- Svg Vector Icons : http://www.onlinewebfonts.com/icon -->
<!DOCTYPE svg PUBLIC "-//W3C//DTD SVG 1.1//EN" "http://www.w3.org/Graphics/SVG/1.1/DTD/svg11.dtd">
<svg version="1.1" xmlns="http://www.w3.org/2000/svg" xmlns:xlink="http://www.w3.org/1999/xlink" x="0px" y="0px" viewBox="0 0 1000 1000" enable-background="new 0 0 1000 1000" xml:space="preserve">
<metadata> Svg Vector Icons : http://www.onlinewebfonts.com/icon </metadata>
<g><g id="_x35_151e0c8492e5103c096af88a51e54a6"><path fill="currentColor" d="M456.4,557.7l172.2,52.1c-11.6,48.3-29.8,88.6-54.7,121c-24.9,32.4-55.8,56.8-92.6,73.3c-36.9,16.5-83.8,24.7-140.8,24.7c-69.1,0-125.6-10-169.4-30.1c-43.8-20.1-81.6-55.4-113.4-106C25.9,642.1,10,577.4,10,498.5c0-105.2,28-186.1,83.9-242.6c56-56.5,135.1-84.8,237.5-84.8c80.1,0,143.1,16.2,188.9,48.6c45.9,32.4,79.9,82.1,102.2,149.2L449,407.6c-6.1-19.4-12.4-33.5-19.1-42.5c-11-15-24.4-26.6-40.4-34.7c-15.9-8.1-33.7-12.2-53.4-12.2c-44.6,0-78.7,17.9-102.4,53.7c-17.9,26.6-26.9,68.3-26.9,125.2c0,70.5,10.7,118.8,32.1,145c21.4,26.1,51.5,39.2,90.3,39.2c37.6,0,66-10.6,85.2-31.7C433.8,628.6,447.7,597.9,456.4,557.7z M939.8,467.9l-13.1,65.8H990v71.5h-77.6l-18.2,91.1h-73.7l18.3-91.1h-57.1l-18.4,91.1h-73.1l18.3-91.1h-35.6v-71.5h50l13.2-65.8h-63.1v-71.5h77.5l18.6-92.7h73.7l-18.7,92.7h56.8l18.6-92.7h73.4l-18.5,92.7H990v71.5H939.8z M866.3,467.9h-56.9l-13.3,65.8h57L866.3,467.9z"/></g></g>
</svg>